<svg xmlns="http://www.w3.org/2000/svg" viewBox="0 0 32 32">
  <defs>
    <linearGradient id="spark" x1="0" y1="0" x2="1" y2="1">
      <stop offset="0%" stop-color="#0ea5e9"/>
      <stop offset="100%" stop-color="#8b5cf6"/>
    </linearGradient>
  </defs>
  <path d="M 20 2
           C 17 7, 14 10, 9 14
           C 7 15, 7 17, 10 17
           C 12 17, 14 17, 16 16
           C 13 20, 10 24, 12 29
           C 14 30, 16 28, 18 25
           C 21 21, 24 17, 26 14
           C 26 13, 24 13, 22 14
           C 19 14, 18 14, 17 15
           C 20 12, 23 8, 22 4
           C 22 2, 21 2, 20 2 Z"
        fill="url(#spark)"/>
</svg>
